<?xml version="1.0" encoding="UTF-8"?><svg xmlns="http://www.w3.org/2000/svg" viewBox="0 0 525 288"><defs><style>.d{fill:#fff;}</style></defs><g id="a"/><g id="b"><g><polygon class="d" points="86.02 119.76 83.8 123.61 77.03 112.03 79.25 108.17 86.02 119.76"/><polygon class="d" points="98.61 124.49 85.37 124.49 87.59 120.66 100.83 120.66 98.61 124.49"/><polygon class="d" points="101.01 130.44 103.1 134.06 86.6 162.76 82.4 162.76 101.01 130.44"/><polygon class="d" points="123.65 158.4 121.44 162.24 100.18 125.4 102.4 121.56 123.65 158.4"/><polygon class="d" points="119.37 124.6 117.15 120.77 128.91 120.77 126.7 124.6 119.37 124.6"/><path class="d" d="M130.37,122.6l3.04,5.28s.02,.02,.04,.02l-6.11,10.56-6.95-12.05h7.26c.32,0,.63-.16,.79-.45l1.93-3.35Z"/><path class="d" d="M131.65,119.38l-4.38-7.58,2.47-4.29,6.77,11.73s-.04,.04-.05,.07l-2.95,5.12-1.93-3.31c-.05-.11-.13-.18-.2-.25l.31-.54c.11-.18,.13-.4,.09-.61-.02-.04,.02-.09,0-.13l-.07-.11s0-.04-.02-.05c0-.02-.02-.02-.04-.04Z"/><polygon class="d" points="125.22 159.3 136.89 159.3 134.66 163.17 122.99 163.17 125.22 159.3"/><polygon class="d" points="135.54 124.49 137.76 120.66 151 120.66 148.78 124.49 135.54 124.49"/><polygon class="d" points="150.46 129.2 152.57 132.85 138.46 156.62 136.35 152.98 150.46 129.2"/><polygon class="d" points="173.82 158.4 171.61 162.24 150.33 125.4 152.55 121.56 173.82 158.4"/><polygon class="d" points="169.46 124.49 166.94 120.12 179.79 120.12 177.21 124.49 169.46 124.49"/><polygon class="d" points="175.39 159.3 186.49 159.3 184.27 163.14 173.18 163.14 175.39 159.3"/><path class="d" d="M189.93,107.02c-3.19,0-5.55,2.59-5.55,5.73s2.36,5.73,5.58,5.73,5.48-2.52,5.48-5.67-2.32-5.78-5.51-5.78Zm1.71,9.49c-.23-.25-.36-.92-.58-1.75-.13-.79-.58-1.13-1.5-1.13h-.77v2.88h-1.68v-7.17c.67-.13,1.59-.22,2.76-.22,1.37,0,1.98,.22,2.5,.52,.4,.31,.7,.88,.7,1.57,0,.79-.61,1.41-1.5,1.68v.07c.7,.27,1.1,.79,1.32,1.77,.22,1.08,.34,1.53,.52,1.78h-1.78Zm-1.89-6.22c-.43,0-.74,.05-.92,.09v2.05h.79c.92,0,1.66-.31,1.66-1.04,0-.65-.49-1.1-1.53-1.1Zm.18-3.28c-3.19,0-5.55,2.59-5.55,5.73s2.36,5.73,5.58,5.73,5.48-2.52,5.48-5.67-2.32-5.78-5.51-5.78Zm1.71,9.49c-.23-.25-.36-.92-.58-1.75-.13-.79-.58-1.13-1.5-1.13h-.77v2.88h-1.68v-7.17c.67-.13,1.59-.22,2.76-.22,1.37,0,1.98,.22,2.5,.52,.4,.31,.7,.88,.7,1.57,0,.79-.61,1.41-1.5,1.68v.07c.7,.27,1.1,.79,1.32,1.77,.22,1.08,.34,1.53,.52,1.78h-1.78Zm-1.89-6.22c-.43,0-.74,.05-.92,.09v2.05h.79c.92,0,1.66-.31,1.66-1.04,0-.65-.49-1.1-1.53-1.1Zm4.07-23.82H65.39c-6.76,0-12.23,5.48-12.23,12.23v73.14c0,6.76,5.48,12.23,12.23,12.23H193.82c6.76,0,12.23-5.48,12.23-12.23V98.72c0-6.76-5.48-12.23-12.23-12.23Zm-4.88,71.88v.07c-.02,.05,.02,.11,0,.14-.02,.04-.04,.04-.05,.05-.02,.07-.02,.16-.05,.22l-3.26,5.64c-.16,.29-.47,.45-.77,.45h-13.19c-.32,0-.61-.16-.77-.45l-17.24-29.85-14.36,24.21-3.26,5.64c-.11,.22-.31,.32-.5,.38-.13,.07-.25,.11-.4,.11h-13.62c-.16,0-.32-.07-.45-.14h-.02v-.02c-.09-.05-.16-.11-.22-.18-.04-.04-.05-.07-.07-.11l-.04-.04-16.52-28.63-16.16,28.1s-.05,.05-.07,.09c-.14,.29-.45,.5-.81,.5h-6.18c-.2,0-.38-.07-.54-.2l-.02-.02c-.05-.04-.09-.07-.11-.11h-.02v-.02c-.07-.09-.11-.16-.14-.25l-7.82-13.53c-.05-.11-.05-.25,0-.36l13.73-23.78h-2.18c-.16,0-.29-.04-.41-.11-.04-.02-.07-.04-.09-.07-.09-.05-.16-.13-.23-.22,0-.02-.04-.02-.05-.05l-7.78-13.28c-.2-.29-.23-.65-.05-.97l3.19-5.55c.14-.23,.38-.38,.63-.41,.04-.02,.07-.04,.09-.04h44.39c.13,0,.25,.07,.32,.2l2.43,4.2,2.27-3.95c.14-.25,.41-.4,.68-.41,.02-.02,.05-.04,.07-.04h44.39c.13,0,.25,.07,.32,.2l7.94,13.78s0,.09,0,.13c.02,.07,.02,.13,0,.2,0,.02,.02,.02,0,.04,0,.02-.02,.02-.02,.04-.02,.07-.05,.16-.11,.27l-3.3,5.6c-.16,.29-.45,.45-.77,.45h-7.22l18.21,31.54c.04,.05,.07,.07,.11,.11,.02,.05,.02,.11,.04,.14l.07,.13c.02,.05-.02,.09,0,.14Zm.99-38.35c-4.11,0-7.39-3.19-7.39-7.26s3.28-7.17,7.39-7.17,7.35,3.19,7.35,7.17-3.21,7.26-7.35,7.26Zm0-12.99c-3.19,0-5.55,2.59-5.55,5.73s2.36,5.73,5.58,5.73,5.48-2.52,5.48-5.67-2.32-5.78-5.51-5.78Zm1.71,9.49c-.23-.25-.36-.92-.58-1.75-.13-.79-.58-1.13-1.5-1.13h-.77v2.88h-1.68v-7.17c.67-.13,1.59-.22,2.76-.22,1.37,0,1.98,.22,2.5,.52,.4,.31,.7,.88,.7,1.57,0,.79-.61,1.41-1.5,1.68v.07c.7,.27,1.1,.79,1.32,1.77,.22,1.08,.34,1.53,.52,1.78h-1.78Zm-1.89-6.22c-.43,0-.74,.05-.92,.09v2.05h.79c.92,0,1.66-.31,1.66-1.04,0-.65-.49-1.1-1.53-1.1Z"/></g><path class="d" d="M384.16,109.45h18.33v8.69h-18.33v-8.69Z"/><g><path class="d" d="M282.05,89.07v37.55h-10.81v-28.6l-16.55,28.6h-9.18l-16.33-28.6v28.6h-10.81v-37.55h18.18l13.79,24.88,13.62-24.88h18.07Z"/><path class="d" d="M316.05,98.47v28.15h-11.54v-28.15h-16.83v-9.4h44.92v9.4h-16.55Z"/><path class="d" d="M367.56,98.47v28.15h-11.54v-28.15h-16.83v-9.4h44.92v9.4h-16.55Z"/><path class="d" d="M446.16,100.56c-.17-3.49-1.86-3.77-8.56-3.77-.56,0-.9,0-1.46,.06-9.68,.51-13-.56-13,3.6,0,1.86,1.46,2.81,3.83,2.87,3.32,.06,6.42,.17,9.06,.17,1.58,0,3.32-.06,4.84-.06,12.5,0,18.13,.45,18.13,11.54,0,7.83-2.98,10.58-9.85,11.37-2.03,.22-7.99,.62-16.94,.62s-14.41-.34-16.95-2.14c-3.6-2.59-3.1-5.69-3.15-10.19h11.32c.06,1.69-.45,3.66,3.55,4,.96,.06,3.77,.17,7.77,.17,10.58,0,12.78-.06,12.78-3.43s-2.87-3.32-7.15-3.38c-22.12-.17-28.54,1.18-28.54-11.2,0-7.43,2.36-10.58,9.57-11.43,2.36-.28,7.88-.68,15.93-.68,8.61,0,13.45,0,16.49,2.2,3.32,2.42,3.49,5.29,3.55,9.68h-11.2Z"/></g><g><path class="d" d="M220.68,139.66v15.34h-2.53v-15.34h2.53Z"/><path class="d" d="M232.55,139.66v2.02h-6.25v4.42h4.9v2.02h-4.9v4.81h6.35v2.07h-8.88v-15.34h8.78Z"/><path class="d" d="M243.24,139.66v2.02h-6.25v4.42h4.9v2.02h-4.9v4.81h6.35v2.07h-8.88v-15.34h8.78Z"/><path class="d" d="M253.94,139.66v2.02h-6.25v4.42h4.9v2.02h-4.9v4.81h6.35v2.07h-8.88v-15.34h8.78Z"/><path class="d" d="M264.43,139.66l3.06,11.06,3.15-11.06h3.61v15.34h-2.39v-13.08l-3.63,13.08h-1.86l-3.57-13.11v13.11h-2.11v-15.34h3.75Z"/><path class="d" d="M279.81,139.66v15.34h-2.53v-15.34h2.53Z"/><path class="d" d="M292.95,150.17c-.48,3.4-2.14,5.1-5.01,5.1-3.56,0-5.54-2.83-5.54-7.93,0-5.08,2.02-7.96,5.59-7.96,.51,0,.99,.07,1.45,.18,2,.53,3.13,2.14,3.54,5.06l-2.37,.34c-.16-1.29-.32-1.86-.64-2.39-.44-.74-1.08-1.1-1.93-1.1-1.98,0-2.94,1.95-2.94,5.98,0,3.82,.99,5.73,2.97,5.73,1.45,0,2.16-.92,2.55-3.33l2.35,.32Z"/><path class="d" d="M300.21,139.66c1.61,0,2.64,.28,3.43,.87,.94,.76,1.47,2,1.47,3.5,0,1.91-.74,3.15-2.34,4.02l2.9,6.94h-2.74l-2.39-6.42h-2.39v6.42h-2.53v-15.34h4.6Zm-2.07,6.97h1.96c1.61,0,2.51-.94,2.51-2.62,0-.3-.02-.55-.09-.8-.3-1.1-1.04-1.59-2.41-1.59h-1.96v5.01Z"/><path class="d" d="M314.31,139.61c2.58,.78,3.86,3.38,3.86,7.73,0,1.29-.14,2.51-.41,3.63-.64,2.76-2.46,4.3-5.06,4.3-.6,0-1.17-.09-1.7-.23-2.51-.78-3.84-3.43-3.84-7.66,0-5.29,1.91-8,5.61-8,.55,0,1.06,.07,1.54,.23Zm-2.6,2.02c-1.26,.55-1.89,2.44-1.89,5.68,0,.64,.02,1.22,.07,1.77,.28,2.83,1.13,4.09,2.78,4.09,1.93,0,2.83-1.86,2.83-5.86,0-.64-.02-1.22-.07-1.72-.28-2.85-1.13-4.12-2.74-4.12-.41,0-.69,.05-.99,.16Z"/><path class="d" d="M321.79,139.66l2.07,11.5,2.41-11.5h2.18l2.39,11.5,2.18-11.5h2.14l-3.24,15.36h-2.28l-2.42-11.24-2.39,11.24h-2.32l-3.31-15.36h2.58Z"/><path class="d" d="M341.73,139.66l4.09,15.34h-2.58l-.97-3.84h-4.48l-.94,3.84h-2.41l4.44-15.34h2.85Zm-1.68,2.48l-1.75,7.01h3.47l-1.73-7.01Z"/><path class="d" d="M348.17,139.66l2.92,12.23,2.9-12.23h2.25l-4.05,15.36-2.74-.02-3.96-15.34h2.67Z"/><path class="d" d="M366.78,139.66v2.02h-6.25v4.42h4.9v2.02h-4.9v4.81h6.35v2.07h-8.88v-15.34h8.78Z"/><path class="d" d="M380.62,139.66v2.16h-3.45v13.18h-2.53v-13.18h-3.38v-2.16h9.36Z"/><path class="d" d="M384.74,139.66v6.37h4.53v-6.37h2.53v15.34h-2.53v-6.83h-4.53v6.83h-2.53v-15.34h2.53Z"/><path class="d" d="M403.64,139.66v2.02h-6.25v4.42h4.9v2.02h-4.9v4.81h6.35v2.07h-8.88v-15.34h8.78Z"/><path class="d" d="M411.97,139.61c2.58,.78,3.86,3.38,3.86,7.73,0,1.29-.14,2.51-.41,3.63-.64,2.76-2.46,4.3-5.06,4.3-.6,0-1.17-.09-1.7-.23-2.51-.78-3.84-3.43-3.84-7.66,0-5.29,1.91-8,5.61-8,.55,0,1.06,.07,1.54,.23Zm-2.6,2.02c-1.26,.55-1.89,2.44-1.89,5.68,0,.64,.02,1.22,.07,1.77,.28,2.83,1.13,4.09,2.78,4.09,1.93,0,2.83-1.86,2.83-5.86,0-.64-.02-1.22-.07-1.72-.28-2.85-1.13-4.12-2.74-4.12-.41,0-.69,.05-.99,.16Z"/><path class="d" d="M422.96,139.66c1.61,0,2.64,.28,3.43,.87,.94,.76,1.47,2,1.47,3.5,0,1.91-.74,3.15-2.34,4.02l2.9,6.94h-2.74l-2.39-6.42h-2.39v6.42h-2.53v-15.34h4.6Zm-2.07,6.97h1.96c1.61,0,2.51-.94,2.51-2.62,0-.3-.02-.55-.09-.8-.3-1.1-1.04-1.59-2.41-1.59h-1.96v5.01Z"/><path class="d" d="M431.22,139.66l2.81,6.39,2.87-6.39h2.42l-4.25,8.85v6.48h-2.53v-6.48l-4.07-8.85h2.76Z"/><path class="d" d="M456.63,146.85c-.44,2.25-.99,3.63-2.07,5.22,.67,.78,1.03,1.03,1.61,1.03,.21,0,.34-.02,.71-.09v1.98c-.55,.16-.85,.21-1.24,.21-.41,0-.8-.09-1.15-.23-.51-.25-.83-.55-1.45-1.29-1.38,1.17-2.42,1.59-3.93,1.59-.55,0-1.08-.07-1.59-.23-1.84-.53-3.04-2.21-3.04-4.28,0-.51,.07-.97,.21-1.43,.46-1.38,1.4-2.3,3.15-3.13-.97-1.49-1.36-2.53-1.36-3.52,0-.44,.09-.83,.28-1.26,.55-1.29,1.82-2.05,3.33-2.05,2.07,0,3.45,1.33,3.45,3.33,0,1.59-.9,2.87-2.78,3.98l2.6,3.77c.67-1.08,1.04-2.18,1.38-4.02l1.89,.41Zm-7.79,.8c-1.36,.85-1.91,1.72-1.91,2.99,0,.44,.09,.87,.25,1.26,.37,.9,1.22,1.45,2.25,1.45,.97,0,1.7-.34,2.51-1.2l-3.1-4.51Zm2.69-4.97c0-.16-.02-.32-.05-.48-.16-.69-.67-1.1-1.33-1.1-.16,0-.32,.02-.51,.09-.58,.21-.92,.74-.92,1.43,0,.74,.34,1.63,1.03,2.67,1.17-.67,1.77-1.56,1.77-2.6Z"/><path class="d" d="M225.67,164.42v2.16h-3.45v13.18h-2.53v-13.18h-3.38v-2.16h9.36Z"/><path class="d" d="M236.05,164.42v2.02h-6.25v4.42h4.9v2.02h-4.9v4.81h6.35v2.07h-8.88v-15.34h8.78Z"/><path class="d" d="M247.75,174.92c-.48,3.4-2.14,5.1-5.01,5.1-3.56,0-5.54-2.83-5.54-7.93s2.02-7.96,5.59-7.96c.51,0,.99,.07,1.45,.18,2,.53,3.13,2.14,3.54,5.06l-2.37,.34c-.16-1.29-.32-1.86-.64-2.39-.44-.74-1.08-1.1-1.93-1.1-1.98,0-2.94,1.95-2.94,5.98,0,3.82,.99,5.73,2.97,5.73,1.45,0,2.16-.92,2.55-3.33l2.35,.32Z"/><path class="d" d="M252.54,164.42v6.37h4.53v-6.37h2.53v15.34h-2.53v-6.83h-4.53v6.83h-2.53v-15.34h2.53Z"/><path class="d" d="M265.56,164.42l5.04,11.06v-11.06h2.12v15.34h-2.37l-5.66-12.28v12.28h-2.12v-15.34h2.99Z"/><path class="d" d="M282.37,164.37c2.58,.78,3.86,3.38,3.86,7.73,0,1.29-.14,2.51-.41,3.63-.64,2.76-2.46,4.3-5.06,4.3-.6,0-1.17-.09-1.7-.23-2.51-.78-3.84-3.43-3.84-7.66,0-5.29,1.91-8,5.61-8,.55,0,1.06,.07,1.54,.23Zm-2.6,2.02c-1.26,.55-1.89,2.44-1.89,5.68,0,.64,.02,1.22,.07,1.77,.28,2.83,1.13,4.09,2.78,4.09,1.93,0,2.83-1.86,2.83-5.86,0-.64-.02-1.22-.07-1.72-.28-2.85-1.13-4.12-2.74-4.12-.41,0-.69,.05-.99,.16Z"/><path class="d" d="M291.29,164.42v13.2h5.43v2.14h-7.96v-15.34h2.53Z"/><path class="d" d="M304.84,164.37c2.58,.78,3.86,3.38,3.86,7.73,0,1.29-.14,2.51-.41,3.63-.64,2.76-2.46,4.3-5.06,4.3-.6,0-1.17-.09-1.7-.23-2.51-.78-3.84-3.43-3.84-7.66,0-5.29,1.91-8,5.61-8,.55,0,1.06,.07,1.54,.23Zm-2.6,2.02c-1.26,.55-1.89,2.44-1.89,5.68,0,.64,.02,1.22,.07,1.77,.28,2.83,1.13,4.09,2.78,4.09,1.93,0,2.83-1.86,2.83-5.86,0-.64-.02-1.22-.07-1.72-.28-2.85-1.13-4.12-2.74-4.12-.41,0-.69,.05-.99,.16Z"/><path class="d" d="M321.56,171.89v7.98h-1.33l-.34-1.95c-.87,1.47-1.98,2.12-3.68,2.12-3.4,0-5.47-2.94-5.47-7.8,0-1.63,.23-3.1,.71-4.51,.8-2.3,2.62-3.59,5.06-3.59,2.85,0,4.37,1.4,4.99,4.67l-2.3,.58c-.25-1.2-.41-1.68-.71-2.12-.44-.69-1.13-1.03-1.98-1.03-2.07,0-3.08,1.91-3.08,5.86,0,.85,.07,1.68,.18,2.48,.32,2.18,1.36,3.36,2.97,3.36,1.77,0,2.62-1.29,2.62-4h-2.74v-2.05h5.11Z"/><path class="d" d="M324.76,164.42l2.81,6.39,2.87-6.39h2.42l-4.25,8.85v6.48h-2.53v-6.48l-4.07-8.85h2.76Z"/><path class="d" d="M345.09,168.6c-.58-1.72-1.31-2.37-2.69-2.37-.25,0-.46,.02-.69,.07-.8,.21-1.4,.99-1.4,1.86,0,.23,.05,.46,.12,.64,.3,.76,.8,1.08,2.94,1.91,1.52,.58,2.23,.94,2.92,1.54,.85,.74,1.36,1.86,1.36,3.13,0,2.74-2.09,4.65-5.13,4.65-1.59,0-2.94-.51-3.89-1.45-.74-.74-1.1-1.45-1.42-2.83l2.25-.64c.41,1.91,1.43,2.83,3.1,2.83,.28,0,.53-.02,.78-.09,1.03-.23,1.7-1.03,1.7-2.12,0-1.15-.64-1.77-2.6-2.51-2.12-.8-2.51-.99-3.24-1.63-.87-.76-1.38-1.89-1.38-3.13,0-2.55,1.93-4.32,4.71-4.32,.53,0,1.04,.07,1.52,.18,1.63,.44,2.58,1.49,3.2,3.52l-2.16,.76Z"/><path class="d" d="M356.63,164.37c2.58,.78,3.86,3.38,3.86,7.73,0,1.29-.14,2.51-.41,3.63-.64,2.76-2.46,4.3-5.06,4.3-.6,0-1.17-.09-1.7-.23-2.51-.78-3.84-3.43-3.84-7.66,0-5.29,1.91-8,5.61-8,.55,0,1.06,.07,1.54,.23Zm-2.6,2.02c-1.26,.55-1.89,2.44-1.89,5.68,0,.64,.02,1.22,.07,1.77,.28,2.83,1.13,4.09,2.78,4.09,1.93,0,2.83-1.86,2.83-5.86,0-.64-.02-1.22-.07-1.72-.28-2.85-1.13-4.12-2.74-4.12-.41,0-.69,.05-.99,.16Z"/><path class="d" d="M373.08,174.92c-.48,3.4-2.14,5.1-5.01,5.1-3.56,0-5.54-2.83-5.54-7.93s2.02-7.96,5.59-7.96c.51,0,.99,.07,1.45,.18,2,.53,3.13,2.14,3.54,5.06l-2.37,.34c-.16-1.29-.32-1.86-.64-2.39-.44-.74-1.08-1.1-1.93-1.1-1.98,0-2.94,1.95-2.94,5.98,0,3.82,.99,5.73,2.97,5.73,1.45,0,2.16-.92,2.55-3.33l2.35,.32Z"/><path class="d" d="M377.82,164.42v15.34h-2.53v-15.34h2.53Z"/><path class="d" d="M389.68,164.42v2.02h-6.25v4.42h4.9v2.02h-4.9v4.81h6.35v2.07h-8.88v-15.34h8.78Z"/><path class="d" d="M400.06,164.42v2.16h-3.45v13.18h-2.53v-13.18h-3.38v-2.16h9.36Z"/><path class="d" d="M403.28,164.42l2.81,6.39,2.87-6.39h2.42l-4.25,8.85v6.48h-2.53v-6.48l-4.07-8.85h2.76Z"/></g></g><g id="c"/></svg>